<?xml version="1.0" standalone="no"?>
<!DOCTYPE svg PUBLIC "-//W3C//DTD SVG 20010904//EN"
 "http://www.w3.org/TR/2001/REC-SVG-20010904/DTD/svg10.dtd">
<svg version="1.0" xmlns="http://www.w3.org/2000/svg"
 width="1123.000000pt" height="1123.000000pt" viewBox="0 0 1123.000000 1123.000000"
 preserveAspectRatio="xMidYMid meet">
<metadata>
Created by potrace 1.11, written by Peter Selinger 2001-2013
</metadata>
<g transform="translate(0.000000,1123.000000) scale(0.100000,-0.100000)"
fill="#000000" stroke="none">
<path d="M4440 9050 c-184 -9 -432 -50 -585 -97 -27 -9 -66 -19 -85 -23 -40
-9 -116 -35 -177 -62 -24 -10 -47 -18 -53 -18 -5 0 -31 -10 -57 -22 -27 -11
-68 -30 -93 -41 -79 -35 -111 -51 -230 -116 -36 -19 -71 -41 -78 -48 -7 -7
-19 -13 -26 -13 -7 0 -21 -8 -32 -17 -24 -21 -46 -36 -96 -63 -21 -11 -38 -25
-38 -30 0 -6 -4 -10 -10 -10 -17 0 -237 -168 -244 -187 -3 -7 -10 -13 -16 -13
-19 0 -340 -331 -340 -350 0 -5 -4 -10 -9 -10 -5 0 -28 -26 -52 -57 -23 -32
-46 -59 -51 -61 -4 -2 -8 -10 -8 -17 0 -8 -6 -18 -13 -22 -7 -4 -27 -30 -45
-58 -17 -27 -35 -54 -39 -60 -13 -17 -59 -89 -67 -105 -4 -8 -18 -33 -31 -55
-32 -54 -117 -227 -145 -295 -12 -30 -31 -74 -41 -98 -10 -23 -19 -48 -19 -55
0 -7 -9 -32 -20 -55 -11 -22 -20 -48 -20 -57 0 -9 -9 -44 -20 -78 -37 -115
-60 -200 -60 -222 0 -39 -30 -124 -55 -153 -14 -17 -39 -32 -57 -35 -50 -10
-180 -46 -203 -56 -11 -6 -36 -17 -55 -26 -55 -25 -86 -44 -100 -60 -16 -19
-4 -19 50 0 65 23 260 38 400 30 131 -7 264 -35 389 -82 36 -14 84 -32 106
-40 22 -8 45 -19 52 -24 17 -15 21 -2 32 107 6 54 18 124 26 154 8 30 15 66
15 79 0 24 26 120 57 211 8 25 19 59 23 76 4 18 15 46 24 64 9 18 16 38 16 43
0 11 28 72 71 157 16 30 37 71 46 90 10 19 21 37 24 40 3 3 14 19 23 35 41 73
126 197 143 208 7 4 13 15 13 22 0 8 4 15 8 15 5 0 22 19 39 43 17 23 61 73
97 112 36 38 66 73 66 77 0 4 9 10 20 13 11 3 20 13 20 21 0 8 3 14 8 14 4 0
25 17 47 37 22 21 78 68 125 105 47 37 92 74 101 83 9 8 18 15 22 15 3 0 27
15 53 33 124 86 357 202 534 265 135 48 323 92 510 119 252 36 672 19 903 -38
43 -10 88 -19 100 -19 29 0 197 -55 312 -102 81 -33 273 -128 311 -154 19 -13
37 -24 39 -24 2 0 25 -15 51 -32 25 -18 53 -37 62 -43 19 -12 30 -21 112 -85
36 -29 69 -58 73 -66 4 -8 12 -14 17 -14 5 0 33 -24 62 -54 65 -66 113 -96
154 -96 17 0 75 22 130 49 281 140 539 214 789 226 130 6 237 15 243 20 1 1
-39 13 -90 26 -81 20 -126 24 -353 28 l-260 6 -35 27 c-19 15 -64 57 -100 94
-98 101 -261 241 -346 296 -27 18 -54 37 -60 43 -41 37 -239 150 -399 228
-219 107 -292 135 -535 205 -303 88 -665 122 -1070 102z"/>
<path d="M7625 7895 c-221 -17 -446 -68 -665 -148 -120 -45 -335 -148 -412
-199 -15 -10 -32 -18 -38 -18 -6 0 -23 -8 -38 -18 -74 -51 -153 -102 -157
-102 -8 0 -100 -64 -103 -72 -2 -4 -8 -8 -14 -8 -9 0 -96 -56 -108 -69 -3 -3
-12 -10 -21 -16 -22 -13 -131 -87 -144 -98 -5 -4 -32 -24 -60 -45 -27 -20 -51
-40 -53 -44 -2 -5 -8 -8 -12 -8 -11 0 -144 -100 -148 -111 -2 -5 -9 -9 -14 -9
-6 0 -18 -7 -27 -15 -9 -9 -45 -38 -81 -65 -36 -27 -72 -56 -81 -65 -9 -8 -21
-15 -27 -15 -7 0 -12 -4 -12 -9 0 -6 -27 -29 -60 -52 -33 -23 -60 -46 -60 -50
0 -5 -7 -9 -15 -9 -8 0 -19 -9 -25 -20 -6 -11 -17 -20 -25 -20 -8 0 -15 -4
-15 -9 0 -4 -27 -28 -60 -52 -33 -24 -60 -47 -60 -51 0 -5 -7 -8 -15 -8 -8 0
-19 -9 -25 -20 -6 -11 -17 -20 -25 -20 -8 0 -15 -3 -15 -8 0 -4 -26 -27 -57
-52 -78 -60 -75 -57 -103 -83 -15 -12 -65 -53 -113 -91 -48 -38 -87 -73 -87
-78 0 -4 -7 -8 -15 -8 -8 0 -19 -9 -25 -20 -6 -11 -17 -20 -25 -20 -8 0 -15
-4 -15 -9 0 -4 -36 -36 -80 -71 -44 -35 -80 -67 -80 -71 0 -5 -7 -9 -15 -9 -8
0 -19 -9 -25 -20 -6 -11 -17 -20 -25 -20 -8 0 -15 -4 -15 -8 0 -5 -28 -32 -62
-60 -35 -28 -75 -61 -89 -74 -15 -13 -45 -39 -68 -58 -23 -19 -56 -48 -74 -65
-18 -16 -61 -55 -97 -85 -35 -30 -76 -66 -90 -80 -43 -40 -162 -145 -200 -176
-19 -16 -37 -31 -40 -34 -22 -23 -135 -76 -210 -99 -79 -24 -157 -31 -229 -20
-69 11 -191 49 -191 60 0 5 -6 9 -14 9 -19 0 -109 51 -119 67 -4 7 -13 13 -20
13 -7 0 -18 9 -25 20 -7 11 -17 20 -22 20 -6 0 -30 21 -53 47 -23 26 -52 56
-64 68 -13 12 -23 27 -23 34 0 6 -4 11 -8 11 -7 0 -67 78 -112 145 -48 72
-104 145 -111 145 -5 0 -9 6 -9 13 0 6 -18 28 -40 47 -22 19 -40 41 -40 48 0
6 -4 12 -8 12 -4 0 -27 18 -50 40 -22 22 -46 40 -52 40 -5 0 -10 4 -10 8 0 9
-86 72 -99 72 -5 0 -14 7 -21 15 -16 19 -196 105 -222 105 -7 0 -42 10 -78 22
-57 18 -89 21 -260 21 -170 1 -207 -2 -290 -22 -52 -13 -114 -32 -138 -42 -23
-10 -47 -19 -52 -19 -19 0 -196 -92 -240 -125 -25 -19 -50 -34 -57 -34 -7 -1
-17 -10 -23 -21 -6 -11 -16 -20 -23 -20 -15 0 -257 -244 -257 -259 0 -5 -6
-14 -13 -18 -12 -8 -68 -87 -114 -162 -61 -98 -153 -319 -153 -365 0 -13 40
21 126 108 69 69 129 126 134 126 5 0 14 9 20 20 6 11 17 20 24 20 8 0 16 6
19 13 4 12 77 66 136 102 9 6 18 13 21 16 7 8 115 63 175 89 47 21 104 33 223
47 72 8 214 -13 282 -42 30 -13 62 -26 70 -29 15 -6 56 -30 127 -78 52 -34
167 -149 200 -199 14 -22 30 -39 34 -39 5 0 9 -7 9 -15 0 -7 6 -18 13 -22 10
-7 41 -50 109 -152 10 -14 25 -39 34 -55 9 -16 20 -34 25 -40 14 -17 59 -86
59 -91 0 -3 17 -31 37 -62 21 -32 43 -67 49 -78 6 -11 20 -36 32 -55 12 -19
32 -52 44 -74 13 -21 28 -46 33 -55 6 -9 21 -34 34 -56 14 -22 28 -42 32 -45
3 -3 14 -18 23 -35 17 -30 28 -47 81 -126 16 -24 34 -51 40 -60 5 -9 30 -45
55 -79 25 -34 50 -70 55 -79 6 -9 12 -18 15 -21 3 -3 23 -27 44 -55 55 -70 55
-69 154 -171 49 -50 97 -94 106 -97 9 -4 16 -11 16 -16 0 -15 47 -59 72 -67
22 -7 78 -42 88 -56 3 -3 19 -10 35 -14 17 -4 39 -13 51 -21 27 -17 118 -41
189 -49 66 -8 227 21 267 48 14 10 31 18 38 18 14 0 81 36 139 75 24 17 51 35
60 40 9 6 18 12 21 15 3 3 30 24 60 47 52 39 107 85 140 116 8 8 38 34 65 57
101 86 232 208 372 348 79 78 144 142 146 142 8 0 217 206 217 214 0 11 48 56
60 56 5 0 11 8 14 18 3 9 29 37 57 62 29 25 73 67 98 94 66 70 670 676 674
676 1 0 57 53 123 118 65 64 179 173 253 242 220 206 261 244 361 330 41 35
87 77 103 92 15 16 31 28 37 28 5 0 14 9 20 20 6 11 17 20 25 20 8 0 15 4 15
9 0 5 36 37 80 72 44 34 80 66 80 71 0 4 6 8 13 8 7 0 20 8 28 18 9 9 29 26
44 37 16 11 51 38 79 61 53 42 199 151 227 169 8 5 32 21 52 33 20 13 37 28
37 33 0 5 4 9 9 9 9 0 99 57 111 69 6 7 29 21 80 51 19 11 53 32 75 45 74 46
167 100 234 136 93 50 101 54 151 76 25 11 66 30 91 42 25 11 52 21 58 21 7 0
31 9 53 20 23 11 48 20 55 20 7 0 41 9 75 19 122 38 257 56 408 56 150 0 186
-7 298 -56 40 -18 102 -26 102 -14 0 14 -47 68 -70 81 -33 19 -67 41 -124 82
-26 17 -54 32 -62 32 -7 0 -14 4 -14 9 0 5 -15 14 -32 21 -18 8 -40 19 -48 25
-18 15 -219 105 -234 105 -6 1 -29 9 -51 20 -22 11 -47 19 -55 20 -8 0 -42 9
-75 19 -114 37 -201 53 -355 67 -85 7 -164 13 -175 12 -11 0 -87 -6 -170 -13z"/>
<path d="M8695 7331 c-105 -11 -352 -75 -415 -108 -14 -7 -31 -13 -39 -13 -7
0 -30 -8 -50 -18 -20 -10 -56 -28 -81 -39 -86 -40 -140 -67 -260 -132 -90 -48
-197 -112 -320 -191 -47 -30 -92 -59 -101 -65 -55 -33 -135 -91 -142 -102 -4
-7 -13 -13 -19 -13 -11 0 -91 -60 -96 -72 -2 -5 -8 -8 -13 -8 -8 0 -252 -190
-269 -210 -3 -3 -30 -25 -60 -50 -30 -24 -67 -57 -83 -72 -15 -15 -29 -28 -31
-28 -3 0 -22 -17 -44 -37 -23 -21 -87 -80 -144 -132 -149 -137 -548 -543 -542
-553 19 -30 71 4 207 135 16 15 33 27 37 27 5 0 14 9 20 20 6 11 17 20 25 20
8 0 15 4 15 8 0 8 166 142 309 249 35 27 89 67 120 91 31 23 64 45 74 48 9 4
17 10 17 15 0 4 18 18 40 30 22 13 40 26 40 31 0 4 7 8 15 8 7 0 18 6 22 13 7
11 51 43 148 107 13 8 44 30 69 48 26 17 51 32 57 32 5 0 9 4 9 9 0 5 15 16
34 25 18 8 39 22 46 31 7 8 16 15 21 15 7 0 71 39 94 58 6 4 24 15 40 23 17 9
46 25 66 36 20 12 47 27 60 34 13 6 31 16 39 20 37 21 220 108 270 128 30 13
71 30 90 38 19 9 55 21 80 28 25 7 59 17 75 23 77 27 148 44 248 58 219 30
366 -19 511 -170 21 -23 55 -66 75 -96 20 -30 39 -57 42 -60 11 -8 99 -188 99
-201 0 -6 9 -37 19 -68 24 -70 48 -208 56 -326 10 -129 53 -202 150 -253 43
-23 135 -55 224 -78 30 -8 60 -19 65 -23 6 -5 27 -12 46 -16 19 -4 41 -11 50
-16 8 -4 53 -27 100 -49 103 -50 104 -51 228 -135 68 -47 211 -184 283 -272
33 -39 59 -74 59 -77 0 -4 15 -28 34 -55 35 -50 126 -228 126 -248 0 -6 8 -32
19 -59 49 -127 81 -307 81 -449 -1 -240 -94 -554 -227 -763 -18 -29 -33 -55
-33 -59 0 -3 -7 -13 -15 -22 -8 -9 -40 -47 -71 -86 -61 -74 -126 -139 -184
-183 -19 -14 -40 -31 -45 -36 -6 -6 -18 -15 -26 -21 -9 -5 -36 -23 -60 -40
-47 -31 -148 -88 -189 -107 -14 -6 -43 -19 -65 -28 -107 -48 -279 -94 -410
-110 -125 -15 -7275 -15 -7390 0 -94 13 -219 43 -290 71 -28 10 -54 19 -57 19
-8 0 -198 93 -233 113 -40 24 -100 62 -110 69 -5 5 -32 25 -60 45 -91 68 -215
184 -215 202 0 6 -4 11 -9 11 -11 0 -119 148 -150 205 -12 22 -25 47 -30 55
-12 23 -46 99 -69 155 -57 142 -102 372 -102 522 0 99 26 278 51 348 6 17 17
50 24 75 15 51 57 152 66 160 4 3 10 16 14 30 4 14 13 32 20 40 7 8 20 32 30
53 9 20 21 37 26 37 5 0 9 6 9 13 0 17 79 107 95 107 7 0 18 7 25 15 12 15 87
39 157 50 49 8 155 -16 230 -52 51 -24 121 -72 194 -133 88 -74 129 -102 143
-97 13 5 14 10 1 39 -7 18 -26 55 -42 81 -15 27 -32 56 -38 66 -15 25 -32 44
-115 127 -97 98 -105 104 -118 104 -5 0 -12 4 -14 9 -9 22 -153 99 -233 125
-93 29 -142 29 -245 2 -52 -13 -109 -32 -125 -40 -17 -9 -35 -16 -41 -16 -28
0 -265 -132 -272 -151 -2 -5 -9 -9 -16 -9 -7 0 -55 -42 -105 -92 -117 -118
-121 -122 -121 -136 0 -7 -4 -12 -9 -12 -5 0 -17 -17 -26 -37 -10 -21 -21 -40
-25 -43 -11 -8 -60 -117 -60 -134 0 -8 -4 -17 -9 -20 -9 -6 -19 -43 -51 -182
-29 -131 -29 -494 0 -634 11 -52 20 -106 20 -119 0 -34 78 -288 105 -341 7
-14 24 -52 39 -85 15 -33 31 -67 37 -75 5 -8 17 -32 26 -53 10 -20 21 -37 25
-37 5 0 8 -4 8 -10 0 -22 175 -270 191 -270 5 0 9 -5 9 -12 0 -14 0 -15 158
-175 72 -73 135 -133 141 -133 5 0 15 -9 21 -20 6 -11 17 -20 25 -20 7 0 15
-3 17 -7 5 -12 86 -73 96 -73 5 0 15 -7 22 -15 7 -8 24 -21 39 -28 14 -8 44
-24 66 -37 22 -13 67 -36 100 -52 33 -17 77 -38 98 -49 22 -10 44 -19 50 -19
7 -1 30 -9 52 -20 22 -11 47 -19 55 -20 8 0 42 -9 75 -19 94 -31 248 -59 390
-73 185 -17 7333 -16 7503 2 65 6 158 21 207 32 121 28 318 93 380 125 16 9
37 19 45 23 8 4 24 12 35 18 11 6 27 13 35 16 8 3 33 17 55 31 22 13 56 34 75
45 51 30 74 44 80 51 3 3 22 15 43 28 20 12 37 27 37 32 0 5 5 9 10 9 21 0
167 121 284 236 38 37 135 148 155 177 8 12 17 24 20 27 3 3 11 12 16 21 6 9
23 36 40 60 31 46 48 75 73 124 9 17 18 32 22 35 3 3 24 46 47 97 69 151 114
300 155 513 19 100 22 148 22 370 0 224 -3 268 -23 365 -31 156 -74 298 -120
400 -41 91 -97 202 -118 233 -13 18 -23 35 -23 37 0 8 -64 100 -72 103 -4 2
-8 8 -8 13 0 12 -94 134 -132 172 -15 15 -28 30 -28 34 0 11 -172 177 -240
231 -36 29 -72 58 -80 65 -16 13 -31 23 -81 51 -19 10 -36 22 -39 26 -10 15
-272 140 -293 140 -6 0 -39 14 -72 30 -108 55 -142 98 -173 220 -11 47 -23 96
-25 110 -6 31 -34 112 -58 166 -11 23 -19 43 -19 46 0 11 -112 203 -155 267
-17 24 -34 52 -40 62 -5 11 -13 19 -16 19 -4 0 -26 25 -49 55 -44 57 -181 168
-222 180 -13 4 -43 15 -66 26 -35 16 -72 21 -175 24 -73 2 -163 0 -202 -4z"/>
</g>
</svg>
